# xmcd
#
# Track frame offsets: 
#        150
#        11760
#        25702
#        42187
#        54667
#        68527
#        84022
#        100717
#        110969
#        122984
#        135381
#        151963
#
# Disc length: 2270 seconds
#
# Revision: 0
# Processed by: cddbd v1.5.2PL0 Copyright (c) Steve Scherf et al.
# Submitted via: ExactAudioCopy v0.95b3
#
DISCID=9008dc0c
DTITLE=Mitch Ryder and The Detroit Wheels  - Take a Ride (mono)  FLAC
DYEAR=1900
DGENRE=
TTITLE0=Shake A Tail Feather
TTITLE1=Come See About Me
TTITLE2=Turn On Your Lovelight
TTITLE3=Just A Litlle Bit
TTITLE4=I Hope
TTITLE5=Jenny Take A Ride
TTITLE6=Please Please Please
TTITLE7=I'll Go Crazy
TTITLE8=I Got You
TTITLE9=Sticks And Stones
TTITLE10=Bring It On Home To Me
TTITLE11=Baby Jane (Mo - Mo Jane)
EXTD=
EXTT0=
EXTT1=
EXTT2=
EXTT3=
EXTT4=
EXTT5=
EXTT6=
EXTT7=
EXTT8=
EXTT9=
EXTT10=
EXTT11=
PLAYORDER=
